#!OML:ASF I:\Actors\actors\Patient Classification 2\Patient 1\Session 1\actor1.ASF
:FULLY-SPECIFIED
:DEGREES
949
root -0.625895 18.4544 5.9322 -9.62177 5.51531 0.854034
lowerback 8.86672 -1.41315 2.47302
upperback 5.63749 -1.68499 3.21421
thorax 0.904755 -0.82863 2.06583
lowerneck -22.1652 0.00413314 -0.555812
upperneck 29.9712 3.29992 -8.82716
head 14.1778 0.0944348 -2.87138
rclavicle 1.17283e-014 -4.77083e-015
rhumerus -41.1256 13.3413 -96.6387
rradius 49.9732
rwrist 17.7269
rhand 9.28971 -63.2594
rfingers 7.12502
rthumb 34.4523 270.058
lclavicle 1.17283e-014 -4.77083e-015
lhumerus -34.7962 -34.7666 108.241
lradius 33.2844
lwrist -11.2981
lhand 19.2328 -14.7709
lfingers 7.12502
lthumb 43.8197 9.17889
rfemur 0 0 0
rtibia 0
rfoot 0 0
rtoes 0
lfemur 4.7465 -2.4621 -15.9174
ltibia 23.6271
lfoot -19.0711 4.12795
ltoes -56.0366
950
root -0.63279 18.4533 5.93703 -9.69767 5.24588 0.818243
lowerback 8.56266 -1.30764 2.32562
upperback 5.53947 -1.56691 3.10887
thorax 0.96728 -0.771779 2.02311
lowerneck -21.8937 -0.0768444 -0.523966
upperneck 30.614 3.08104 -8.44634
head 14.3753 0.0484272 -2.78403
rclavicle -1.43125e-014 2.06736e-014
rhumerus -41.0108 13.2333 -96.7411
rradius 49.3
rwrist 17.7939
rhand 9.76374 -63.1166
rfingers 7.12502
rthumb 34.9022 270.305
lclavicle -1.43125e-014 2.06736e-014
lhumerus -34.8318 -34.5186 108.116
lradius 33.2262
lwrist -11.4987
lhand 19.6982 -14.6712
lfingers 7.12502
lthumb 44.2539 9.11638
rfemur 0 0 0
rtibia 0
rfoot 0 0
rtoes 0
lfemur 4.93079 -2.41068 -15.8649
ltibia 23.5512
lfoot -19.1441 4.31376
ltoes -56.0492
951
root -0.640351 18.4518 5.94198 -9.80279 5.0237 0.804366
lowerback 8.27163 -1.19837 2.13793
upperback 5.46063 -1.44525 3.01581
thorax 1.04409 -0.714227 2.01659
lowerneck -21.7083 -0.191435 -0.698652
upperneck 31.3507 2.81255 -7.82162
head 14.6276 -0.0113081 -2.57235
rclavicle 2.14687e-014 -7.95139e-015
rhumerus -40.8993 13.16 -96.8456
rradius 48.6269
rwrist 17.505
rhand 9.64552 -62.8208
rfingers 7.12502
rthumb 34.7901 270.574
lclavicle 2.14687e-014 -7.95139e-015
lhumerus -34.9224 -34.4025 108.077
lradius 33.1843
lwrist -11.5631
lhand 19.9862 -14.491
lfingers 7.12502
lthumb 44.5222 9.1943
rfemur 0 0 0
rtibia 0
rfoot 0 0
rtoes 0
lfemur 5.14937 -2.39262 -15.8406
ltibia 23.4714
lfoot -19.2168 4.50001
ltoes -56.0865
952
root -0.648955 18.4495 5.94936 -9.93767 4.91641 0.781986
lowerback 7.94643 -1.11182 1.96001
upperback 5.4076 -1.35383 2.9312
thorax 1.16725 -0.671511 2.01549
lowerneck -21.5291 -0.312635 -0.922677
upperneck 32.0789 2.53676 -7.17424
head 14.8843 -0.0751985 -2.34094
rclavicle -4.62174e-014 1.74931e-014
rhumerus -40.7472 13.0474 -96.8936
rradius 47.9478
rwrist 17.1095
rhand 9.59297 -62.3957
rfingers 7.12502
rthumb 34.7402 270.988
lclavicle -4.62174e-014 1.74931e-014
lhumerus -35.0131 -34.3234 108.065
lradius 33.148
lwrist -11.6593
lhand 20.2829 -14.3269
lfingers 7.12502
lthumb 44.7985 9.25156
rfemur 0 0 0
rtibia 0
rfoot 0 0
rtoes 0
lfemur 5.39363 -2.4323 -15.8065
ltibia 23.382
lfoot -19.2713 4.64145
ltoes -56.1571
953
root -0.659375 18.4472 5.95808 -10.0757 4.87284 0.789193
lowerback 7.61409 -1.04028 1.71415
upperback 5.39181 -1.28621 2.85915
thorax 1.33545 -0.642751 2.06754
lowerneck -21.4156 -0.414893 -1.10199
upperneck 32.7705 2.29816 -6.62197
head 15.1517 -0.130437 -2.14693
rclavicle 1.11319e-014 -1.90833e-014
rhumerus -40.4321 12.8548 -96.8104
rradius 47.2124
rwrist 17.1197
rhand 10.446 -62.169
rfingers 7.12502
rthumb 35.5493 271.405
lclavicle 1.11319e-014 -1.90833e-014
lhumerus -34.9897 -34.1765 107.972
lradius 33.1177
lwrist -11.8776
lhand 20.6182 -14.34
lfingers 7.12502
lthumb 45.1106 9.1159
rfemur 0 0 0
rtibia 0
rfoot 0 0
rtoes 0
lfemur 5.63118 -2.46336 -15.7885
ltibia 23.2964
lfoot -19.3032 4.69421
ltoes -56.2073
954
root -0.670138 18.4441 5.96659 -10.2262 4.8794 0.797989
lowerback 7.34822 -0.99886 1.40609
upperback 5.35845 -1.25716 2.82013
thorax 1.45192 -0.635895 2.19318
lowerneck -21.2637 -0.526456 -1.27398
upperneck 33.3943 2.05592 -6.14169
head 15.3874 -0.193834 -1.98006
rclavicle 2.38542e-015 -1.59028e-014
rhumerus -40.1839 12.7053 -96.6786
rradius 46.5147
rwrist 17.4448
rhand 11.7301 -61.9802
rfingers 7.12502
rthumb 36.7654 271.895
lclavicle 2.38542e-015 -1.59028e-014
lhumerus -34.9612 -33.965 107.906
lradius 33.0779
lwrist -12.0638
lhand 20.9374 -14.2378
lfingers 7.12502
lthumb 45.4073 9.09952
rfemur 0 0 0
rtibia 0
rfoot 0 0
rtoes 0
lfemur 5.86853 -2.54766 -15.7827
ltibia 23.2244
lfoot -19.3288 4.7092
ltoes -56.1329
955
root -0.678777 18.4407 5.97352 -10.3492 4.8561 0.750291
lowerback 7.12356 -0.967747 1.20104
upperback 5.26427 -1.23134 2.7691
thorax 1.48017 -0.627641 2.25028
lowerneck -21.0061 -0.635866 -1.40053
upperneck 33.9179 1.7951 -5.69647
head 15.5567 -0.260239 -1.83288
rclavicle 2.03754e-014 2.8625e-014
rhumerus -40.1435 12.6006 -96.6677
rradius 45.9629
rwrist 17.5479
rhand 12.4442 -61.5874
rfingers 7.12502
rthumb 37.4407 272.463
lclavicle 2.03754e-014 2.8625e-014
lhumerus -35.0307 -33.81 107.891
lradius 32.9853
lwrist -12.1183
lhand 21.2289 -14.029
lfingers 7.12502
lthumb 45.6781 9.19837
rfemur 0 0 0
rtibia 0
rfoot 0 0
rtoes 0
lfemur 6.06591 -2.65742 -15.7322
ltibia 23.1629
lfoot -19.3576 4.77789
ltoes -55.9859
956
root -0.686801 18.4383 5.98027 -10.4192 4.79606 0.696057
lowerback 6.86912 -0.915189 1.06449
upperback 5.16483 -1.17308 2.69036
thorax 1.51638 -0.600709 2.23817
lowerneck -20.7698 -0.743726 -1.47548
upperneck 34.3667 1.51393 -5.26686
head 15.6987 -0.329053 -1.70147
rclavicle 5.46658e-016 2.38542e-015
rhumerus -40.0844 12.4816 -96.7312
rradius 45.4144
rwrist 17.3474
rhand 12.57 -61.1124
rfingers 7.12502
rthumb 37.5596 272.97
lclavicle 5.46658e-016 2.38542e-015
lhumerus -35.1125 -33.7165 107.846
lradius 32.9028
lwrist -12.1253
lhand 21.5238 -13.9016
lfingers 7.12502
lthumb 45.9518 9.21297
rfemur 0 0 0
rtibia 0
rfoot 0 0
rtoes 0
lfemur 6.19501 -2.65967 -15.6461
ltibia 23.115
lfoot -19.388 4.82943
ltoes -55.9673
957
root -0.695723 18.4367 5.98832 -10.5031 4.73144 0.652681
lowerback 6.62503 -0.844201 0.905395
upperback 5.08493 -1.09088 2.6292
thorax 1.56733 -0.562697 2.25617
lowerneck -20.564 -0.869315 -1.61539
upperneck 34.7979 1.19868 -4.76109
head 15.8412 -0.409056 -1.53072
rclavicle 1.08835e-014 -2.38542e-015
rhumerus -39.9941 12.3328 -96.7569
rradius 44.8366
rwrist 17.0279
rhand 12.5649 -60.7593
rfingers 7.12502
rthumb 37.5548 273.322
lclavicle 1.08835e-014 -2.38542e-015
lhumerus -35.1932 -33.5747 107.806
lradius 32.8892
lwrist -12.168
lhand 21.9566 -13.6829
lfingers 7.12502
lthumb 46.3532 9.26304
rfemur 0 0 0
rtibia 0
rfoot 0 0
rtoes 0
lfemur 6.34254 -2.65939 -15.5704
ltibia 23.0778
lfoot -19.4609 4.88165
ltoes -56.0399
958
root -0.703775 18.4355 5.99648 -10.6042 4.64111 0.606654
lowerback 6.41149 -0.765293 0.776547
upperback 5.00233 -0.995098 2.58264
thorax 1.59785 -0.517229 2.27266
lowerneck -20.3542 -0.996291 -1.9002
upperneck 35.2316 0.889042 -4.13874
head 15.9886 -0.488799 -1.28123
rclavicle -8.89561e-015 4.77083e-015
rhumerus -39.9558 12.0815 -96.7239
rradius 44.3259
rwrist 16.7984
rhand 12.6926 -60.5495
rfingers 7.12502
rthumb 37.6755 273.564
lclavicle -8.89561e-015 4.77083e-015
lhumerus -35.2831 -33.3991 107.814
lradius 32.8713
lwrist -12.2379
lhand 22.4067 -13.4349
lfingers 7.12502
lthumb 46.7701 9.33189
rfemur 0 0 0
rtibia 0
rfoot 0 0
rtoes 0
lfemur 6.52135 -2.69485 -15.51
ltibia 23.0372
lfoot -19.5395 4.95441
ltoes -56.0277
959
root -0.710576 18.4335 6.0051 -10.7012 4.54323 0.573744
lowerback 6.2048 -0.685754 0.688347
upperback 4.91682 -0.895623 2.51101
thorax 1.62021 -0.468354 2.24082
lowerneck -20.1364 -1.11145 -2.06389
upperneck 35.6323 0.605129 -3.67628
head 16.1251 -0.564125 -1.11448
rclavicle 8.29926e-015 1.11319e-014
rhumerus -39.9284 11.8023 -96.6994
rradius 43.8541
rwrist 16.7038
rhand 12.8292 -60.2514
rfingers 7.12502
rthumb 37.8045 273.897
lclavicle 8.29926e-015 1.11319e-014
lhumerus -35.3918 -33.248 107.811
lradius 32.8459
lwrist -12.3334
lhand 22.7167 -13.2367
lfingers 7.12502
lthumb 47.057 9.40442
rfemur 0 0 0
rtibia 0
rfoot 0 0
rtoes 0
lfemur 6.70169 -2.67003 -15.4489
ltibia 22.981
lfoot -19.5397 4.97505
ltoes -56.0134
960
root -0.71739 18.4307 6.01449 -10.7907 4.47676 0.538537
lowerback 5.98473 -0.634264 0.562073
upperback 4.83978 -0.835239 2.44657
thorax 1.66097 -0.440284 2.23984
lowerneck -19.9107 -1.18776 -2.03116
upperneck 35.996 0.376293 -3.41549
head 16.2466 -0.618373 -1.05723
rclavicle 9.91439e-015 -1.27222e-014
rhumerus -39.886 11.6517 -96.7064
rradius 43.406
rwrist 16.6061
rhand 13.0493 -59.9295
rfingers 7.12502
rthumb 38.0124 274.275
lclavicle 9.91439e-015 -1.27222e-014
lhumerus -35.4774 -33.0626 107.77
lradius 32.8058
lwrist -12.443
lhand 22.7602 -13.1049
lfingers 7.12502
lthumb 47.0972 9.51841
rfemur 0 0 0
rtibia 0
rfoot 0 0
rtoes 0
lfemur 6.86953 -2.63206 -15.3771
ltibia 22.9149
lfoot -19.5184 4.96025
ltoes -56.0177
961
root -0.722879 18.4294 6.02442 -10.8267 4.46048 0.550372
lowerback 5.70015 -0.605648 0.363031
upperback 4.75638 -0.808767 2.39283
thorax 1.73352 -0.431391 2.2918
lowerneck -19.675 -1.23903 -2.06125
upperneck 36.3319 0.195209 -3.12446
head 16.3548 -0.656476 -0.964849
rclavicle -6.70898e-015 -1.74931e-014
rhumerus -39.8384 11.5598 -96.6889
rradius 42.9637
rwrist 16.4327
rhand 13.3772 -59.7583
rfingers 7.12502
rthumb 38.322 274.531
lclavicle -6.70898e-015 -1.74931e-014
lhumerus -35.524 -32.7451 107.697
lradius 32.746
lwrist -12.6284
lhand 22.7596 -13.111
lfingers 7.12502
lthumb 47.0966 9.51256
rfemur 0 0 0
rtibia 0
rfoot 0 0
rtoes 0
lfemur 6.98262 -2.69124 -15.3917
ltibia 22.848
lfoot -19.5587 5.01158
ltoes -55.9443
